/* XPM */
static char *ac0df4318cb54139c9a82efef3c0a3b4uq9ATW5xWSSvTVPj[] = {
/* columns rows colors chars-per-pixel */
"64 64 59 1 ",
"  c black",
". c #010601",
"X c #010C01",
"o c #021102",
"O c #021502",
"+ c #031903",
"@ c #031C03",
"# c #042104",
"$ c #052605",
"% c #062806",
"& c #082F08",
"* c #093209",
"= c #0A350A",
"- c #0B370B",
"; c #0C3B0C",
": c #0C3C0C",
"> c #0F420F",
", c #104710",
"< c #114811",
"1 c #124C12",
"2 c #134E13",
"3 c #155315",
"4 c #155415",
"5 c #175917",
"6 c #175A17",
"7 c #195F19",
"8 c #196019",
"9 c #1B641B",
"0 c #1B651B",
"q c #1D6B1D",
"w c #1F6F1F",
"e c #1F711F",
"r c #207220",
"t c #207420",
"y c #227922",
"u c #237B23",
"i c #247D24",
"p c #258125",
"a c #278527",
"s c #298B29",
"d c #298D29",
"f c #2B912B",
"g c #2B922B",
"h c #2C952C",
"j c #2D972D",
"k c #2D982D",
"l c #2F9E2F",
"z c #309F30",
"x c #31A231",
"c c #32A532",
"v c #33A733",
"b c #33AA33",
"n c #34AB34",
"m c #35AE35",
"M c #36B236",
"N c #37B237",
"B c #37B437",
"V c #38B738",
"C c #39B939",
/* pixels */
"CCCCCCCCCCCCCCCCCCCCCCCCCCCCCCCCCCCCCCCCCCCCCCCCCCCCCCCCCCCCCCCC",
"CCCCCCCCCCCCCCCCCCCCCCCCCCCCCCCCCCCCCCCCCCCCCCCCCCCCCCCCCCCCCCCC",
"CCCCCCCCCCCCCCCCCCCCCCCCCCCCCCCCCCCCCCCCCCCCCCCCCCCCCCCCCCCCCCCC",
"CCCCCCCCCCCCCCCCCCCCCCCCCCCCCCCCCCCCCCCCCCCCCCCCCCCCCCCCCCCCCCCC",
"CCCCCCCCCCCCCCCCCCCCCCCCCCCCCCCCCCCCCCCCCCCCCCCCCCCCCCCCCCCCCCCC",
"CCCCCCCCCCCCCCCCCCCCCCCCCCCCCCCCCCCCCCCCCCCCCCCCCCCCCCCCCCCCCCCC",
"CCCCCCCCCCCCCCCCCCCCCCCCCCCCCCCCCCCCCCCCCCCCCCCCCCCCCCCCCCCCCCCC",
"CCCCCCCCCCCCCCCCCCCCCCCCCCCCCCCCCCCCCCCCCCCCCCCCCCCCCCCCCCCCCCCC",
"CCCCCCCCCCCCCCCCCCCCCCCCCCCCCCCCCCCCCCCCCCCCCCCCCCCCCCCCCCCCCCCC",
"CCCCCCCCCCCCCCCCCCCCCCCCCCCCCCCCCCCCCCCCCCCCCCCCCCCCCCCCCCCCCCCC",
"CCCCCCCCCCCCCCCCCCCCCCCCCCCCCCCCCCCCCCCCCCCCCCCCCCCCCCCCCCCCCCCC",
"CCCCCCCCCCCCCCC&        yCCCCCCCCCCCCCCCCCCn     dCCCCCCCCCCCCCC",
"CCCCCCCCCCCCCCC&        omCCCCCCCCCCCCCCCCCn     dCCCCCCCCCCCCCC",
"CCCCCCCCCCCCCCC&         wCCCCCCCCCCCCCCCCCn     dCCCCCCCCCCCCCC",
"CCCCCCCCCCCCCCC&         .cCCCCCCCCCCCCCCCCn     dCCCCCCCCCCCCCC",
"CCCCCCCCCCCCCCC&    O     0CCCCCCCCCCCCCCCCn     dCCCCCCCCCCCCCC",
"CCCCCCCCCCCCCCC&    q:     xCCCCCCCCCCCCCCCn     dCCCCCCCCCCCCCC",
"CCCCCCCCCCCCCCC&    ef     6CCCCCCCCCCCCCCCn     dCCCCCCCCCCCCCC",
"CCCCCCCCCCCCCCC&    eV<     lCCCCCCCCCCCCCCn     dCCCCCCCCCCCCCC",
"CCCCCCCCCCCCCCC&    eCk     2VCCCCCCCCCCCCCn     dCCCCCCCCCCCCCC",
"CCCCCCCCCCCCCCC&    eCC4     hCCCCCCCCCCCCCn     dCCCCCCCCCCCCCC",
"CCCCCCCCCCCCCCC&    eCCl     ,CCCCCCCCCCCCCn     dCCCCCCCCCCCCCC",
"CCCCCCCCCCCCCCC&    eCCC8     dCCCCCCCCCCCCn     dCCCCCCCCCCCCCC",
"CCCCCCCCCCCCCCC&    eCCCc     =BCCCCCCCCCCCn     dCCCCCCCCCCCCCC",
"CCCCCCCCCCCCCCC&    eCCCCq     aCCCCCCCCCCCn     dCCCCCCCCCCCCCC",
"CCCCCCCCCCCCCCC&    eCCCCbX    %MCCCCCCCCCCn     dCCCCCCCCCCCCCC",
"CCCCCCCCCCCCCCC&    eCCCCCt     iCCCCCCCCCCn     dCCCCCCCCCCCCCC",
"CCCCCCCCCCCCCCC&    eCCCCCm@    @MCCCCCCCCCn     dCCCCCCCCCCCCCC",
"CCCCCCCCCCCCCCC&    eCCCCCCi     rCCCCCCCCCn     dCCCCCCCCCCCCCC",
"CCCCCCCCCCCCCCC&    eCCCCCCM%    XnCCCCCCCCn     dCCCCCCCCCCCCCC",
"CCCCCCCCCCCCCCC&    eCCCCCCCa     wVCCCCCCCn     dCCCCCCCCCCCCCC",
"CCCCCCCCCCCCCCC&    eCCCCCCCB=     cCCCCCCCn     dCCCCCCCCCCCCCC",
"CCCCCCCCCCCCCCC&    eCCCCCCCCd     8CCCCCCCn     dCCCCCCCCCCCCCC",
"CCCCCCCCCCCCCCC&    eCCCCCCCCM,     xCCCCCCn     dCCCCCCCCCCCCCC",
"CCCCCCCCCCCCCCC&    eCCCCCCCCCj     4CCCCCCn     dCCCCCCCCCCCCCC",
"CCCCCCCCCCCCCCC&    eCCCCCCCCCC2     kCCCCCn     dCCCCCCCCCCCCCC",
"CCCCCCCCCCCCCCC&    eCCCCCCCCCCk     2CCCCCn     dCCCCCCCCCCCCCC",
"CCCCCCCCCCCCCCC&    eCCCCCCCCCCC6     fCCCCn     dCCCCCCCCCCCCCC",
"CCCCCCCCCCCCCCC&    eCCCCCCCCCCCx     ;BCCCn     dCCCCCCCCCCCCCC",
"CCCCCCCCCCCCCCC&    rCCCCCCCCCCCC0     dCCCn     dCCCCCCCCCCCCCC",
"CCCCCCCCCCCCCCC&    eCCCCCCCCCCCCb     *VCCn     dCCCCCCCCCCCCCC",
"CCCCCCCCCCCCCCC&    eCCCCCCCCCCCCCw     pCCn     dCCCCCCCCCCCCCC",
"CCCCCCCCCCCCCCC&    eCCCCCCCCCCCCCmo    $MCn     dCCCCCCCCCCCCCC",
"CCCCCCCCCCCCCCC&    eCCCCCCCCCCCCCCt     uCn     dCCCCCCCCCCCCCC",
"CCCCCCCCCCCCCCC&    eCCCCCCCCCCCCCCM#    +mn     dCCCCCCCCCCCCCC",
"CCCCCCCCCCCCCCC&    eCCCCCCCCCCCCCCCp     rn     dCCCCCCCCCCCCCC",
"CCCCCCCCCCCCCCC&    eCCCCCCCCCCCCCCCN&    .k     dCCCCCCCCCCCCCC",
"CCCCCCCCCCCCCCC&    eCCCCCCCCCCCCCCCCs     2     dCCCCCCCCCCCCCC",
"CCCCCCCCCCCCCCC&    eCCCCCCCCCCCCCCCVV;          dCCCCCCCCCCCCCC",
"CCCCCCCCCCCCCCC&    eCCCCCCCCCCCCCCCCVh          dCCCCCCCCCCCCCC",
"CCCCCCCCCCCCCCC&    eCCCCCCCCCCCCCCCCCV,         dCCCCCCCCCCCCCC",
"CCCCCCCCCCCCCCC&    eCCCCCCCCCCCCCCCCCCj         dCCCCCCCCCCCCCC",
"CCCCCCCCCCCCCCC&    rCCCCCCCCCCCCCCCCCCV3        dCCCCCCCCCCCCCC",
"CCCCCCCCCCCCCCC&    rCCCCCCCCCCCCCCCCCCCz        dCCCCCCCCCCCCCC",
"CCCCCCCCCCCCCCC&    wCCCCCCCCCCCCCCCCCCCC7       dCCCCCCCCCCCCCC",
"CCCCCCCCCCCCCCC&    eCCCCCCCCCCCCCCCCCCCCc       dCCCCCCCCCCCCCC",
"CCCCCCCCCCCCCCCCCCCCCCCCCCCCCCCCCCCCCCCCCCCCCCCCCCCCCCCCCCCCCCCC",
"CCCCCCCCCCCCCCCCCCCCCCCCCCCCCCCCCCCCCCCCCCCCCCCCCCCCCCCCCCCCCCCC",
"CCCCCCCCCCCCCCCCCCCCCCCCCCCCCCCCCCCCCCCCCCCCCCCCCCCCCCCCCCCCCCCC",
"CCCCCCCCCCCCCCCCCCCCCCCCCCCCCCCCCCCCCCCCCCCCCCCCCCCCCCCCCCCCCCCC",
"CCCCCCCCCCCCCCCCCCCCCCCCCCCCCCCCCCCCCCCCCCCCCCCCCCCCCCCCCCCCCCCC",
"CCCCCCCCCCCCCCCCCCCCCCCCCCCCCCCCCCCCCCCCCCCCCCCCCCCCCCCCCCCCCCCC",
"CCCCCCCCCCCCCCCCCCCCCCCCCCCCCCCCCCCCCCCCCCCCCCCCCCCCCCCCCCCCCCCC",
"CCCCCCCCCCCCCCCCCCCCCCCCCCCCCCCCCCCCCCCCCCCCCCCCCCCCCCCCCCCCCCCC"
};
