/* XPM */
static char *_1528ddb03894c75becab73b9e91c0e5GNpNXdirxaDWOQou[] = {
/* columns rows colors chars-per-pixel */
"64 64 83 1 ",
"  c black",
". c #00090D",
"X c #001116",
"o c #00171C",
"O c #001C22",
"+ c #002026",
"@ c #00232A",
"# c #002A32",
"$ c #002C35",
"% c #002F38",
"& c #00313B",
"* c #00343D",
"= c #003640",
"- c #003842",
"; c #003A45",
": c #003E49",
"> c #004551",
", c #004A56",
"< c #004B58",
"1 c #004D5A",
"2 c #00515F",
"3 c #005260",
"4 c #005563",
"5 c #005766",
"6 c #005B6A",
"7 c #005F6E",
"8 c #006272",
"9 c #006576",
"0 c #006778",
"q c #006879",
"w c #006B7D",
"e c #006D7F",
"r c #006E80",
"t c #007082",
"y c #007284",
"u c #007487",
"i c #007B8F",
"p c #007D91",
"a c #007F94",
"s c #008297",
"d c #00869B",
"f c #00879C",
"g c #00889E",
"h c #008AA0",
"j c #008CA3",
"k c #008EA4",
"l c #0092AA",
"z c #0094AB",
"x c #0096AE",
"c c #0099B2",
"v c #009BB4",
"b c #009CB5",
"n c #009FB9",
"m c #00A2BB",
"M c #00A2BC",
"N c #00A5BF",
"B c #00A7C1",
"V c #00AAC4",
"C c #00ABC5",
"Z c #00AECA",
"A c #00B0CB",
"S c #00B2CE",
"D c #00B3CE",
"F c #00B6D2",
"G c #00B7D3",
"H c #00B8D5",
"J c #00BDDA",
"K c #00BFDC",
"L c #00C1DF",
"P c #00C5E3",
"I c #00C7E6",
"U c #00C8E7",
"Y c #00C9E8",
"T c #00CCEB",
"R c #00CDED",
"E c #00CFEF",
"W c #00D2F3",
"Q c #00D3F3",
"! c #00D5F6",
"~ c #00D7F8",
"^ c #00D8FA",
"/ c #00DCFE",
"( c #00DDFF",
/* pixels */
"((((((((((((((((((((((((((((((((((((((((((((((((((((((((((((((((",
"((((((((((((((((((((((((((((((((((((((((((((((((((((((((((((((((",
"((((((((((((((((((((((((((((((((((((((((((((((((((((((((((((((((",
"((((((((((((((((((((((((((((((((((((((((((((((((((((((((((((((((",
"((((((((((((((((((((((((((((((((((((((((((((((((((((((((((((((((",
"((((((((((((((((((((((((((((((((((((((((((((((((((((((((((((((((",
"((((((((((((((((((((((((((((((((((((((((((((((((((((((((((((((((",
"((((((((((((((((((((((((((((((((((((((((((((((((((((((((((((((((",
"((((((((((((((((((((((((((((((((((((((((((((((((((((((((((((((((",
"(((((((((((((((((((((((((!JMp92*O;27efmFY(((((((((((((((((((((((",
"(((((((((((((((((((((((KdO               =pCT(((((((((((((((((((",
"(((((((((((((((((((((P8                      8BQ((((((((((((((((",
"(((((((((((((((((((^l.                         X((((((((((((((((",
"((((((((((((((((((!q                            ((((((((((((((((",
"(((((((((((((((((~9       $gAUQ^(~QIFcyO        ((((((((((((((((",
"(((((((((((((((((d      %m^((((((((((((~HsO     ((((((((((((((((",
"((((((((((((((((J      6R(((((((((((((((((!m:   ((((((((((((((((",
"((((((((((((((((e     1!((((((((((((((((((((!cO ((((((((((((((((",
"(((((((((((((((R      J(((((((((((((((((((((((I4((((((((((((((((",
"(((((((((((((((Z     4((((((((((((((((((((((((((((((((((((((((((",
"(((((((((((((((x     d((((((((((((((((((((((((((((((((((((((((((",
"(((((((((((((((h     x((((((((((((((((((((((((((((((((((((((((((",
"(((((((((((((((j     h((((((((((((((((((((((((((((((((((((((((((",
"(((((((((((((((c     8((((((((((((((((((((((((((((((((((((((((((",
"(((((((((((((((C      Y(((((((((((((((((((((((((((((((((((((((((",
"(((((((((((((((U      u(((((((((((((((((((((((((((((((((((((((((",
"((((((((((((((((1      p!(((((((((((((((((((((((((((((((((((((((",
"((((((((((((((((B       =vR(((((((((((((((((((((((((((((((((((((",
"((((((((((((((((~4         5lZI^((((((((((((((((((((((((((((((((",
"(((((((((((((((((I@            X6dmHR(((((((((((((((((((((((((((",
"((((((((((((((((((J&                 >sCR(((((((((((((((((((((((",
"(((((((((((((((((((Y8                    8C^((((((((((((((((((((",
"((((((((((((((((((((/C<                    ;B(((((((((((((((((((",
"(((((((((((((((((((((((Hs=                   0Q(((((((((((((((((",
"((((((((((((((((((((((((((PCg6.               1U((((((((((((((((",
"((((((((((((((((((((((((((((((^UFcp,           7^(((((((((((((((",
"((((((((((((((((((((((((((((((((((((RDd#        b(((((((((((((((",
"(((((((((((((((((((((((((((((((((((((((!m#      ;^((((((((((((((",
"(((((((((((((((((((((((((((((((((((((((((Y,      J((((((((((((((",
"((((((((((((((((((((((((((((((((((((((((((L      c((((((((((((((",
"(((((((((((((((((((((((((((((((((((((((((((q     s((((((((((((((",
"(((((((((((((((((((((((((((((((((((((((((((c     y((((((((((((((",
"(((((((((((((((((((((((((((((((((((((((((((B     e((((((((((((((",
"(((((((((((((((((((((((((((((((((((((((((((N     i((((((((((((((",
"(((((((((((((((((((((((((((((((((((((((((((z     c((((((((((((((",
"(((((((((((((((8P((((((((((((((((((((((((((3     H((((((((((((((",
"(((((((((((((((;Om~(((((((((((((((((((((((G     ;^((((((((((((((",
"(((((((((((((((;  7J(((((((((((((((((((((R:     b(((((((((((((((",
"(((((((((((((((;    rJ((((((((((((((((((I>     1^(((((((((((((((",
"(((((((((((((((;      1bI(((((((((((((QkX      H((((((((((((((((",
"(((((((((((((((;         ,dCLR!(^!RHme        M(((((((((((((((((",
"(((((((((((((((;                             m((((((((((((((((((",
"(((((((((((((((x*                          1J(((((((((((((((((((",
"((((((((((((((((~Dt                      #x~((((((((((((((((((((",
"(((((((((((((((((((QAs*                2N!((((((((((((((((((((((",
"(((((((((((((((((((((((YFndw71-o+*4ykCY(((((((((((((((((((((((((",
"((((((((((((((((((((((((((((((((((((((((((((((((((((((((((((((((",
"((((((((((((((((((((((((((((((((((((((((((((((((((((((((((((((((",
"((((((((((((((((((((((((((((((((((((((((((((((((((((((((((((((((",
"((((((((((((((((((((((((((((((((((((((((((((((((((((((((((((((((",
"((((((((((((((((((((((((((((((((((((((((((((((((((((((((((((((((",
"((((((((((((((((((((((((((((((((((((((((((((((((((((((((((((((((",
"((((((((((((((((((((((((((((((((((((((((((((((((((((((((((((((((",
"(((((((((((((((((((((((((((((((((((((((((((((((((((((((((((((((("
};
