/* XPM */
static char *ca8f1ebb4387406dd7f56c53a6bc7870OkcYc55JqWGu4Dtc[] = {
/* columns rows colors chars-per-pixel */
"64 64 59 1 ",
"  c black",
". c #00000D",
"X c #000016",
"o c #00001C",
"O c #000026",
"+ c #00002A",
"@ c #00002E",
"# c #000032",
"$ c #000035",
"% c #000038",
"& c #00003D",
"* c #000042",
"= c #000045",
"- c #00004B",
"; c #00004D",
": c #000051",
"> c #000056",
", c #00005A",
"< c #00005F",
"1 c #000062",
"2 c #000065",
"3 c #000068",
"4 c #00006C",
"5 c #000073",
"6 c #000076",
"7 c #000079",
"8 c #00007E",
"9 c #000081",
"0 c #000087",
"q c #00008C",
"w c #00008E",
"e c #000090",
"r c #000095",
"t c #00009A",
"y c #00009F",
"u c #0000A0",
"i c #0000A5",
"p c #0000A8",
"a c #0000AC",
"s c #0000B2",
"d c #0000B6",
"f c #0000BB",
"g c #0000BD",
"h c #0000C1",
"j c #0000C5",
"k c #0000C8",
"l c #0000CE",
"z c #0000D2",
"x c #0000D7",
"c c #0000DA",
"v c #0000DF",
"b c #0000E3",
"n c #0000E4",
"m c #0000EB",
"M c #0000EF",
"N c #0000F2",
"B c #0000F5",
"V c #0000F8",
"C c blue",
/* pixels */
"CCCCCCCCCCCCCCCCCCCCCCCCCCCCCCCCCCCCCCCCCCCCCCCCCCCCCCCCCCCCCCCC",
"CCCCCCCCCCCCCCCCCCCCCCCCCCCCCCCCCCCCCCCCCCCCCCCCCCCCCCCCCCCCCCCC",
"CCCCCCCCCCCCCCCCCCCCCCCCCCCCCCCCCCCCCCCCCCCCCCCCCCCCCCCCCCCCCCCC",
"CCCCCCCCCCCCCCCCCCCCCCCCCCCCCCCCCCCCCCCCCCCCCCCCCCCCCCCCCCCCCCCC",
"CCCCCCCCCCCCCCCCCCCCCCCCCCCCCCCCCCCCCCCCCCCCCCCCCCCCCCCCCCCCCCCC",
"CCCCCCCCCCCCCCCCCCCCCCCCCCCCCCCCCCCCCCCCCCCCCCCCCCCCCCCCCCCCCCCC",
"CCCCCCCCCCCCCCCCCCCCCCCCCCCCCCCCCCCCCCCCCCCCCCCCCCCCCCCCCCCCCCCC",
"CCCCCCCCCCCCCCCCCCCCCCCCCCCCCCCCCCCCCCCCCCCCCCCCCCCCCCCCCCCCCCCC",
"CCCCCCCCCCCCCCCCCCCCCCCCCCCCCCCCCCCCCCCCCCCCCCCCCCCCCCCCCCCCCCCC",
"CCCCCCCCCCCCCCCCCCCCCCCCCCCCCCCCCCCCCCCCCCCCCCCCCCCCCCCCCCCCCCCC",
"CCCCCCCCCCCCCCCCCCCCCCCCCCCCCCCCCCCCCCCCCCCCCCCCCCCCCCCCCCCCCCCC",
"CCCCCCCCCCCCCCCCCCCCCCCCCCCCCCCCCCCCCCCCCCCCCCCCCCCCCCCCCCCCCCCC",
"CCCCB     oVCCCCCCCCCCCCCCCCCl     -CCCCCCCCCCCCCCCCCCg     lCCC",
"CCCCC5     cCCCCCCCCCCCCCCCCCy      mCCCCCCCCCCCCCCCCCq     NCCC",
"CCCCCs     sCCCCCCCCCCCCCCCCC<      jCCCCCCCCCCCCCCCCC%    3CCCC",
"CCCCCc     7CCCCCCCCCCCCCCCCM       rCCCCCCCCCCCCCCCCb     pCCCC",
"CCCCCVO    XBCCCCCCCCCCCCCCCl       -CCCCCCCCCCCCCCCCg     xCCCC",
"CCCCCC0     cCCCCCCCCCCCCCCCu        mCCCCCCCCCCCCCCCq    .BCCCC",
"CCCCCCf     aCCCCCCCCCCCCCCC1        jCCCCCCCCCCCCCCC%    6CCCCC",
"CCCCCCb     6CCCCCCCCCCCCCCN    #    tCCCCCCCCCCCCCCn     sCCCCC",
"CCCCCCC&    .BCCCCCCCCCCCCCl    a    ;CCCCCCCCCCCCCCg     cCCCCC",
"CCCCCCCr     xCCCCCCCCCCCCCu    N=    mCCCCCCCCCCCCCq    oBCCCCC",
"CCCCCCCj     aCCCCCCCCCCCCC<   2Cr    jCCCCCCCCCCCCC%    9CCCCCC",
"CCCCCCCm     5CCCCCCCCCCCCM    iCj    tCCCCCCCCCCCCn     fCCCCCC",
"CCCCCCCC>     BCCCCCCCCCCCl    zCm    ;CCCCCCCCCCCCh     vCCCCCC",
"CCCCCCCCu     xCCCCCCCCCCCu    NCC-    mCCCCCCCCCCCq    #VCCCCCC",
"CCCCCCCCl     pCCCCCCCCCCC1   1CCCr    jCCCCCCCCCCC&    qCCCCCCC",
"CCCCCCCCN     4CCCCCCCCCCN    uCCCj    tCCCCCCCCCCn     gCCCCCCC",
"CCCCCCCCC4     NCCCCCCCCCl    lCCCm    :CCCCCCCCCCh     nCCCCCCC",
"CCCCCCCCCa     zCCCCCCCCCu    NCCCC:    mCCCCCCCCCe    *CCCCCCCC",
"CCCCCCCCCx     pCCCCCCCCC1   1CCCCCt    kCCCCCCCCC&    rCCCCCCCC",
"CCCCCCCCCVo    3CCCCCCCCN    uCCCCCk    tCCCCCCCCn     jCCCCCCCC",
"CCCCCCCCCC8     NCCCCCCCl    lCCCCCm    ;CCCCCCCCh     mCCCCCCCC",
"CCCCCCCCCCd     lCCCCCCCi    MCCCCCC>    MCCCCCCCe    :CCCCCCCCC",
"CCCCCCCCCCv     iCCCCCCC1   <CCCCCCCy    kCCCCCCC*    yCCCCCCCCC",
"CCCCCCCCCCC$    1CCCCCCN    yCCCCCCCk    tCCCCCCn     lCCCCCCCCC",
"CCCCCCCCCCCq     NCCCCCl    kCCCCCCCM    :CCCCCCh     MCCCCCCCCC",
"CCCCCCCCCCCh     lCCCCCi    MCCCCCCCC,    mCCCCCe    1CCCCCCCCCC",
"CCCCCCCCCCCn     uCCCCC1   ,CCCCCCCCCu    kCCCCC=    pCCCCCCCCCC",
"CCCCCCCCCCCC;    <CCCCN    yCCCCCCCCCl    tCCCCn     zCCCCCCCCCC",
"CCCCCCCCCCCCt     MCCCl    kCCCCCCCCCM    :CCCCh     BCCCCCCCCCC",
"CCCCCCCCCCCCk     lCCCi    MCCCCCCCCCC<    mCCCe    5CCCCCCCCCCC",
"CCCCCCCCCCCCN     yCCC1   >CCCCCCCCCCCu    kCCC*    aCCCCCCCCCCC",
"CCCCCCCCCCCCC1    >CCN    yCCCCCCCCCCCz    yCCm     cCCCCCCCCCCC",
"CCCCCCCCCCCCCi     MCz    kCCCCCCCCCCCN    :CCh    oVCCCCCCCCCCC",
"CCCCCCCCCCCCCx     kCi    MCCCCCCCCCCCC2    MCr    8CCCCCCCCCCCC",
"CCCCCCCCCCCCCB.    yC2   >CCCCCCCCCCCCCi    kC=    dCCCCCCCCCCCC",
"CCCCCCCCCCCCCC6    :N    tCCCCCCCCCCCCCz    tn     vCCCCCCCCCCCC",
"CCCCCCCCCCCCCCs     d    jCCCCCCCCCCCCCN    :j    @VCCCCCCCCCCCC",
"CCCCCCCCCCCCCCv     %    MCCCCCCCCCCCCCC3    4    qCCCCCCCCCCCCC",
"CCCCCCCCCCCCCCV+        ;CCCCCCCCCCCCCCCp         gCCCCCCCCCCCCC",
"CCCCCCCCCCCCCCC0        yCCCCCCCCCCCCCCCx         nCCCCCCCCCCCCC",
"CCCCCCCCCCCCCCCg        jCCCCCCCCCCCCCCCN        &CCCCCCCCCCCCCC",
"CCCCCCCCCCCCCCCb        mCCCCCCCCCCCCCCCC4       rCCCCCCCCCCCCCC",
"CCCCCCCCCCCCCCCC*      ;CCCCCCCCCCCCCCCCCa       hCCCCCCCCCCCCCC",
"CCCCCCCCCCCCCCCCr      tCCCCCCCCCCCCCCCCCx       mCCCCCCCCCCCCCC",
"CCCCCCCCCCCCCCCCj      jCCCCCCCCCCCCCCCCCB.     ;CCCCCCCCCCCCCCC",
"CCCCCCCCCCCCCCCCCCCCCCCCCCCCCCCCCCCCCCCCCCCCCCCCCCCCCCCCCCCCCCCC",
"CCCCCCCCCCCCCCCCCCCCCCCCCCCCCCCCCCCCCCCCCCCCCCCCCCCCCCCCCCCCCCCC",
"CCCCCCCCCCCCCCCCCCCCCCCCCCCCCCCCCCCCCCCCCCCCCCCCCCCCCCCCCCCCCCCC",
"CCCCCCCCCCCCCCCCCCCCCCCCCCCCCCCCCCCCCCCCCCCCCCCCCCCCCCCCCCCCCCCC",
"CCCCCCCCCCCCCCCCCCCCCCCCCCCCCCCCCCCCCCCCCCCCCCCCCCCCCCCCCCCCCCCC",
"CCCCCCCCCCCCCCCCCCCCCCCCCCCCCCCCCCCCCCCCCCCCCCCCCCCCCCCCCCCCCCCC",
"CCCCCCCCCCCCCCCCCCCCCCCCCCCCCCCCCCCCCCCCCCCCCCCCCCCCCCCCCCCCCCCC"
};
