/* XPM */
static char *result[] = {
/* columns rows colors chars-per-pixel */
"64 52 68 1 ",
"  c #020303",
". c #080705",
"X c #060807",
"o c #0C0E00",
"O c #060709",
"+ c #0A040E",
"@ c #070908",
"# c #0A0C0B",
"$ c #190000",
"% c #0F0110",
"& c #131313",
"* c #1D1E1E",
"= c #3A0000",
"- c #1F2120",
"; c #222222",
": c #2D2E2D",
"> c #2E302F",
", c #353535",
"< c #3C3C3C",
"1 c #5F0001",
"2 c #434544",
"3 c #4C4D4C",
"4 c #4E504F",
"5 c #4F5150",
"6 c #535554",
"7 c #575958",
"8 c #5A5B5A",
"9 c #636463",
"0 c #666867",
"q c #6C6D6D",
"w c #6E706F",
"e c #6F7170",
"r c #727373",
"t c #767877",
"y c #777978",
"u c #7A7B7B",
"i c #EB1D1F",
"p c #FF1230",
"a c #C42C38",
"s c #7E807F",
"d c #838484",
"f c #868887",
"g c #858688",
"h c #878988",
"j c #8B8B8B",
"k c #90908E",
"l c #8F9190",
"z c #959595",
"x c #969897",
"c c #979998",
"v c #9B9B9B",
"b c #A3A3A3",
"n c #ACACAC",
"m c #AFB1B0",
"M c #B4B4B4",
"N c #BDBDBD",
"B c #BEC0BF",
"V c #BFC1C0",
"C c #C4C4C4",
"Z c #CACACA",
"A c #D4D4D4",
"S c #D7D9D8",
"D c gray86",
"F c #E5E5E5",
"G c #EBECEB",
"H c #F4F4F4",
"J c #FFFFFF",
"K c None",
/* pixels */
"KKKKKKKKKKKKKKKKKKKKKKKKKKKKKKKKKKKKKKKKKKKKKKKKKKKKKKKKKKKKKKKK",
"KKKKKKKKKKKKKKKKKKKKKKKKKKKKKKKKKKKKKKKKKKKKKKKKKKKKKKKKKKKKKKKK",
"KKKKKKKKKKKKKKKKKKKKKKKKKKKKKKKKKKKKKKKKKKKKKKKKKKKKKKKKKKKKKKKK",
"KKKKKKKKKKKKKKKKKKKKKKKKKKKKKKKKKKKKKKKKKKKKKKKKKKKKKKKKKKKKKKKK",
"KKKKKKKKKKKKKKKKKKKKKKKKKKKd HHJJJJJJJ KKKKKKKKKKKKKKKKKKKKKKKKK",
"KKKKKKKKKKKKKKKKKKKKKKKKK<JJJJJJJJJJJJJJJKKKKKKKKKKKKKKKKKKKKKKK",
"KKKKKKKKKKKKKKKKKKKKKKK#JJJJJJJJJJJJJJJJJJ<KKKKKKKKKKKKKKKKKKKKK",
"KKKKKKKKKKKKKKKKKKKKKKHJJJJJJJJJJJJJJJJJJHJJKKKKKKKKKKKKKKKKKKKK",
"KKKKKKKKKKKKKKKKKKKKKJJJJJJJJJJJJJJJJJJJJJJJHKKKKKKKKKKKKKKKKKKK",
"KKKKKKKKKKKKKKKKKKKK JHJJJJJJJJJJJJJJJJJJJJ#: KKKKKKKKKKKKKKKKKK",
"KKKKKKKKKKKKKKKKKKKKJHdJJJJJJJJJJJJJJJJJJJJJJJKKKKKKKKKKKKKKKKKK",
"KKKKKKKKKKKKKKKKKKK.JJJJJJJJJJJJJJJJJJJJJJJJJJ;KKKKKKKKKKKKKKKKK",
"KKKKKKKKKKKKKKKKKKKJJFJJJJJJJJJJJJJJJJJJJJJJHJFKKKKKKKKKKKKKKKKK",
"KKKKKKKKKKKKKKKKKKKJJHJJJJJJJJJJJJJJJJJJJJJJJH2KKKKKKKKKKKKKKKKK",
"KKKKKKKKKKKKKKKKKKKJJHJJJJJ JJhJJJJJGbHJJJJJJJ-bKKKKKKKKKKKKKKKK",
"KKKKKKKKKKKKKKKKKKKJJJJJJ nCCCJJJJJJJCC23JJJJJqtKKKKKKKKKKKKKKKK",
"KKKKKKKKKKKKKKKKKKK0JnJJHCCCCMMNCZZCMNCCCDJJGJq8KKKKKKKKKKKKKKKK",
"KKKKKKKKKKKKKKKKKKKqHJJDmvvbbbczzczcvzkcNCCJJJr9KKKKKKKKKKKKKKKK",
"KKKKKKKKKKKKKKKKKKKqJHDMvzczzzzzzzzzjddhbNCCJHqrKKKKKKKKKKKKKKKK",
"KKKKKKKKKKKKKKKKKKKqmGCncxxczhddgjgdddgjcMCCAtejKKKKKKKKKKKKKKKK",
"KKKKKKKKKKKKKKKKKKKq#HNncxzzzv7uzzkzzzxxzcbNC eKKKKKKKKKKKKKKKKK",
"KKKKKKKKKKKKKKKKKKK:VHN664czv666zz5zzxzxxxxbN5,KKKKKKKKKKKKKKKKK",
"KKKKKKKKKKKKKKKKKKKKquN5u26d66666668zz6z3NDDNX#KKKKKKKKKKKKKKKKK",
"KKKKKKKKKKKKKKKKKKKKd<CJJJ266666666646C:ASSJH*tKKKKKKKKKKKKKKKKK",
"KKKKKKKKKKKKKKKKKKKKKrJJJJJF345266664CzJJJJJJ#KKKKKKKKKKKKKKKKKK",
"KKKKKKKKKKKKKKKKKKKK2HcwqJJJJ66226668JJJC,ZJJ KKKKKKKKKKKKKKKKKK",
"KKKKKKKKKKKKKKKKKKKvw:.X. qHJJn62266JJJrXXXXrrvKKKKKKKKKKKKKKKKK",
"KKKKKKKKKKKKKKKKKKK.3tOXXX#qJJJ92CmHJq..XXXXOd2KKKKKKKKKKKKKKKKK",
"KKKKKKKKKKKKKKKKKKK2eu@@XXXXqzn0#qNr@ XXXXO.gd0KKKKKKKKKKKKKKKKK",
"KKKKKKKKKKKKKKKKKKKKuJ@XXaiXXX z<N@XXop$@.X dddKKKKKKKKKKKKKKKKK",
"KKKKKKKKKKKKKKKKKKKKtJJ.XX=XXXwz&Jl@X+1%X@OugqMKKKKKKKKKKKKKKKKK",
"KKKKKKKKKKKKKKKKKKKKqyJA@@6qq0Ml;NJle2X O zJd KKKKKKKKKKKKKKKKKK",
"KKKKKKKKKKKKKKKKKKKKXeyJJnMbqwJ*;;HzzwdddGJg09KKKKKKKKKKKKKKKKKK",
"KKKKKKKKKKKKKKKKKKKKKequdrqqt6&;*. j,qdgJJdq.KKKKKKKKKKKKKKKKKKK",
"KKKKKKKKKKKKKKKKKKKKKK.X####s,;;&XXz,##:fuqqtKKKKKKKKKKKKKKKKKKK",
"KKKKKKKKKKKKKKKKKKKKKKK #<,,z<xJu*b7cj;##X dKKKKKKKKKKKKKKKKKKKK",
"KKKKKKKKKKKKKKKKKKKKKKK0#,zGcZ236jzG;j,## KKKKKKKKKKKKKKKKKKKKKK",
"KKKKKKKKKKKKKKKKKKKKKKKK&-# vzNJ2khkxw;2#KKKKKKKKKKKKKKKKKKKKKKK",
"KKKKKKKKKKKKKKKKKKKKKKKK2>.nJJVjHHJSGZM<2KKKKKKKKKKKKKKKKKKKKKKK",
"KKKKKKKKKKKKKKKKKKKKKKKK 6H#cJHJHJJNdJJ<,KKKKKKKKKKKKKKKKKKKKKKK",
"KKKKKKKKKKKKKKKKKKKKKKKKKjvJJ3bJHJc&JJNN KKKKKKKKKKKKKKKKKKKKKKK",
"KKKKKKKKKKKKKKKKKKKKKKKKK.nqJ# ## HJHdM9qKKKKKKKKKKKKKKKKKKKKKKK",
"KKKKKKKKKKKKKKKKKKKKKKKKKK5:teJJHJGHnvu<KKKKKKKKKKKKKKKKKKKKKKKK",
"KKKKKKKKKKKKKKKKKKKKKKKKKKKNbbMcJMMnNF KKKKKKKKKKKKKKKKKKKKKKKKK",
"KKKKKKKKKKKKKKKKKKKKKKKKKKK.JJCG,nbnJ KKKKKKKKKKKKKKKKKKKKKKKKKK",
"KKKKKKKKKKKKKKKKKKKKKKKKKKKK7JJJJJJH KKKKKKKKKKKKKKKKKKKKKKKKKKK",
"KKKKKKKKKKKKKKKKKKKKKKKKKKKKKzJJJJJ9jKKKKKKKKKKKKKKKKKKKKKKKKKKK",
"KKKKKKKKKKKKKKKKKKKKKKKKKKKKKK     7KKKKKKKKKKKKKKKKKKKKKKKKKKKK",
"KKKKKKKKKKKKKKKKKKKKKKKKKKKKKKKKKKKKKKKKKKKKKKKKKKKKKKKKKKKKKKKK",
"KKKKKKKKKKKKKKKKKKKKKKKKKKKKKKKKKKKKKKKKKKKKKKKKKKKKKKKKKKKKKKKK",
"KKKKKKKKKKKKKKKKKKKKKKKKKKKKKKKKKKKKKKKKKKKKKKKKKKKKKKKKKKKKKKKK",
"KKKKKKKKKKKKKKKKKKKKKKKKKKKKKKKKKKKKKKKKKKKKKKKKKKKKKKKKKKKKKKKK"
};
