/* XPM */
static char * 8_xpm[] = {
"8 15 2 1",
" 	c #FFFFFFFF",
".	c #FFFFFF",
"  ....  ",
"  ....  ",
"..    ..",
"..    ..",
"..    ..",
"..    ..",
"..    ..",
"  ....  ",
"..    ..",
"..    ..",
"..    ..",
"..    ..",
"..    ..",
"  ....  ",
"  ....  "};
