/* XPM */
static char * 9_xpm[] = {
"8 15 2 1",
" 	c #FFFFFFFF",
".	c #FFFFFF",
"  ....  ",
"  ....  ",
"..    ..",
"..    ..",
"..    ..",
"..    ..",
"..    ..",
"  ......",
"      ..",
"      ..",
"      ..",
"      ..",
"      ..",
"  ....  ",
"  ....  "};
